# xmcd
#
# Track frame offsets: 
#        150
#        15937
#        34681
#        52324
#        68066
#        85852
#        102022
#        127312
#        145787
#        161466
#        183984
#        201508
#        223610
#        244099
#
# Disc length: 3454 seconds
#
# Revision: 1
# Processed by: cddbd v1.5.2PL0 Copyright (c) Steve Scherf et al.
# Submitted via: ExactAudioCopy v0.95a4
#
DISCID=c50d7c0e
DTITLE=Smokin' Joe Kubek and Bnois King - Unplugged Close To The Bone
DYEAR=2012
DGENRE=Blues
TTITLE0=Poor Boy Blues
TTITLE1=Can't Let Go
TTITLE2=My Best Friend
TTITLE3=Keep Her Around
TTITLE4=Get Out There and Get It
TTITLE5=Yankin' My Chain
TTITLE6=Drowning In Red Ink
TTITLE7=My Hats Off To You
TTITLE8=No Good Could Come of This
TTITLE9=Ordinary Man
TTITLE10=She Got Rid of Me
TTITLE11=Jump the Moon
TTITLE12=Mama's Bad Luck Child
TTITLE13=Baby You're the One
EXTD=
EXTT0=
EXTT1=
EXTT2=
EXTT3=
EXTT4=
EXTT5=
EXTT6=
EXTT7=
EXTT8=
EXTT9=
EXTT10=
EXTT11=
EXTT12=
EXTT13=
PLAYORDER=
